<svg width="345" height="87" viewBox="0 0 345 87" fill="none" xmlns="http://www.w3.org/2000/svg">
<g clip-path="url(#clip0_19_133)">
<path d="M88.03 51.41L24.13 51.42L65.31 11.23L35.63 11.21L24.19 0.01L92.86 0L51.68 40.2L76.7 40.22L88.03 51.41Z" fill="#8916D7"/>
<path d="M77.26 86.74L67.98 79.58L95.06 58.37C98.39 55.76 101 52.47 102.98 48.82C106.33 42.64 106.7 35.51 103.94 29.07C102.64 26.05 100.91 23.47 98.72 21L88.32 10.59L96.36 2.70996L107.13 13.56C109.77 16.54 111.93 19.68 113.63 23.24C118.19 32.75 118.1 43.63 113.41 53.08C111.26 57.42 108.38 61.24 104.9 64.61L100.1 68.76L77.26 86.74Z" fill="#0A1F3B"/>
<path d="M22.28 58.6899L49.02 79.5499L39.78 86.7499L15.77 67.8599C2.02 56.8899 -4.31 40.2399 3.2 23.6099C5.35 18.9599 8.37 14.8799 12.07 11.3199L20.69 2.68994L28.69 10.5699L20.33 18.9099C17.78 21.3599 15.6 24.0099 14 27.1299C7.83 38.8599 12.47 50.5799 22.28 58.6799V58.6899Z" fill="#0A1F3B"/>
<path d="M309.78 33.44C304.81 33.37 301.51 37.07 301.32 41.87V65.7H290.43V24.81H300.45L300.81 29.96C303.43 25.78 307.92 23.7 312.76 23.65C322.34 23.55 327.65 31.22 327.78 40.4V65.71H316.89V41.7C316.69 37.29 314.44 33.51 309.77 33.44H309.78Z" fill="#0A1F3B"/>
<path d="M274.04 24.82L284.94 24.79L284.91 47.95C284.9 56.22 280.51 63.54 272.47 65.95C268.42 67.16 264.14 67.17 260.08 66.02C252.14 63.77 247.95 56.55 247.74 48.45V24.81H258.63V48.61C258.86 53.19 261.29 56.88 265.98 57.08C271.04 57.3 273.86 53.35 274.04 48.41V24.83V24.82Z" fill="#0A1F3B"/>
<path d="M203.71 24.83L214.62 24.8L214.58 48.35C214.58 50.89 214.09 53.24 213.22 55.58C209.68 65.08 199.49 68.6 190.08 66.11C184.91 64.75 180.94 61.09 178.97 56.16C177.91 53.51 177.5 50.86 177.42 47.95V24.8H188.3V48.6C188.56 53.43 191.3 57.2 196.23 57.08C201.16 56.96 203.53 53.13 203.71 48.44V24.83Z" fill="#0A1F3B"/>
<path d="M173.2 65.69L138.6 65.7L138.59 58.46L158.3 33.65L139.11 33.61L139.12 24.81L171.89 24.8V32.06L152.05 56.9L173.2 56.92V65.69Z" fill="#0A1F3B"/>
<path d="M231 45.17L230.98 65.69L220.14 65.71V24.81H230.13L230.57 30.8C231.82 28.4 233.53 26.44 236 25.28C238.85 24.03 242.02 23.98 245 24.99L243.84 35.69C241.39 34.96 238.93 34.98 236.58 35.74C234.27 36.57 232.62 38.38 231.78 40.66C231.3 42.1 231.01 43.5 231.01 45.18L231 45.17Z" fill="#0A1F3B"/>
<path d="M344.18 65.67L333.29 65.7V24.81H344.18V65.67Z" fill="#0A1F3B"/>
<path d="M57.49 60.71C61.5 60.14 64.98 62.93 65.53 66.7C66.08 70.47 63.4 74.24 59.49 74.78C55.58 75.32 52.05 72.69 51.46 68.82C50.87 64.95 53.44 61.28 57.49 60.71Z" fill="#0A1F3B"/>
<path d="M338.92 19.99C335.28 20.08 332.55 17.35 332.51 13.84C332.47 10.27 335.26 7.52001 338.83 7.57001C342.4 7.62001 345.09 10.43 344.97 14.01C344.86 17.29 342.35 19.9 338.92 19.99Z" fill="#0A1F3B"/>
</g>
<defs>
<clipPath id="clip0_19_133">
<rect width="344.98" height="86.75" fill="white"/>
</clipPath>
</defs>
</svg>
